<svg width="630" height="77" viewBox="0 0 630 77" fill="none" xmlns="http://www.w3.org/2000/svg">
<path d="M64.5996 21.0998H44.0996V72.8H20.5V21.0998H0V2.79999H64.5996V21.0998Z" fill="black"/>
<path d="M64.5996 21.0998H44.0996V72.8H20.5V21.0998H0V2.79999H64.5996V21.0998Z" stroke="black"/>
<path d="M94.1996 27.5998H116V2.79999H139.6V72.8H116V47.0002H94.1996V72.8H70.6V2.79999H94.1996V27.5998Z" fill="black"/>
<path d="M94.1996 27.5998H116V2.79999H139.6V72.8H116V47.0002H94.1996V72.8H70.6V2.79999H94.1996V27.5998Z" stroke="black"/>
<path d="M179.3 2.79999C185.833 2.80001 191.466 3.86695 196.2 6.00018C201 8.13352 204.7 11.2004 207.3 15.2004C209.9 19.1336 211.2 23.8005 211.2 29.2004C211.2 34.6002 209.9 39.2671 207.3 43.2004C205.035 46.569 201.934 49.2536 197.999 51.256L212.7 72.8H187.5L175.629 55.2004H169.2V72.8H145.6V2.79999H179.3ZM169.2 37.3996H177.8C181.067 37.3996 183.467 36.667 185 35.2004C186.6 33.7338 187.4 31.7335 187.4 29.2004C187.4 26.6673 186.6 24.667 185 23.2004C183.467 21.7337 181.067 21.0002 177.8 21.0002H169.2V37.3996Z" fill="black"/>
<path d="M179.3 2.79999C185.833 2.80001 191.466 3.86695 196.2 6.00018C201 8.13352 204.7 11.2004 207.3 15.2004C209.9 19.1336 211.2 23.8005 211.2 29.2004C211.2 34.6002 209.9 39.2671 207.3 43.2004C205.035 46.569 201.934 49.2536 197.999 51.256L212.7 72.8H187.5L175.629 55.2004H169.2V72.8H145.6V2.79999H179.3ZM169.2 37.3996H177.8C181.067 37.3996 183.467 36.667 185 35.2004C186.6 33.7338 187.4 31.7335 187.4 29.2004C187.4 26.6673 186.6 24.667 185 23.2004C183.467 21.7337 181.067 21.0002 177.8 21.0002H169.2V37.3996Z" stroke="black"/>
<path d="M232.2 50.0002C236.133 50.0002 239.3 51.1331 241.7 53.3996C244.167 55.6663 245.4 58.4667 245.4 61.8C245.4 65.0667 244.167 67.9 241.7 70.3C239.3 72.6333 236.133 73.8 232.2 73.8C228.333 73.8 225.167 72.6333 222.7 70.3C220.233 67.9 219 65.0667 219 61.8C219 58.4667 220.233 55.6663 222.7 53.3996C225.167 51.1331 228.333 50.0002 232.2 50.0002ZM245.4 46.0002H219L218.7 2.79999H245.7L245.4 46.0002Z" fill="black"/>
<path d="M232.2 50.0002C236.133 50.0002 239.3 51.1331 241.7 53.3996C244.167 55.6663 245.4 58.4667 245.4 61.8C245.4 65.0667 244.167 67.9 241.7 70.3C239.3 72.6333 236.133 73.8 232.2 73.8C228.333 73.8 225.167 72.6333 222.7 70.3C220.233 67.9 219 65.0667 219 61.8C219 58.4667 220.233 55.6663 222.7 53.3996C225.167 51.1331 228.333 50.0002 232.2 50.0002ZM245.4 46.0002H219L218.7 2.79999H245.7L245.4 46.0002Z" stroke="black"/>
<path d="M308.6 20.5998H275.3V32.5998H304.5V50.3996H275.3V72.8H251.7V2.79999H308.6V20.5998Z" fill="black"/>
<path d="M308.6 20.5998H275.3V32.5998H304.5V50.3996H275.3V72.8H251.7V2.79999H308.6V20.5998Z" stroke="black"/>
<path d="M379.2 21.0998H358.7V72.8H335.1V21.0998H314.6V2.79999H379.2V21.0998Z" fill="black"/>
<path d="M379.2 21.0998H358.7V72.8H335.1V21.0998H314.6V2.79999H379.2V21.0998Z" stroke="black"/>
<path d="M468.2 2.5H444.6V27.3H422.8V2.5H399.2V72.5H422.8V46.7H444.6V72.5H468.2V2.5Z" stroke="black" stroke-width="5"/>
<path d="M513.3 74.1C502.567 74.1 494.2 71.2 488.2 65.4C482.2 59.6 479.2 51.4667 479.2 41V2.5H502.8V40.3C502.8 45.6333 503.767 49.4333 505.7 51.7C507.633 53.9 510.233 55 513.5 55C516.833 55 519.433 53.9 521.3 51.7C523.233 49.4333 524.2 45.6333 524.2 40.3V2.5H547.4V41C547.4 51.4667 544.4 59.6 538.4 65.4C532.4 71.2 524.033 74.1 513.3 74.1Z" stroke="black" stroke-width="5"/>
<path d="M558.4 2.5V72.5H597.8C607.467 72.5 614.8 70.8 619.8 67.4C624.867 64 627.4 59.2667 627.4 53.2C627.4 49.1333 626.3 45.6667 624.1 42.8C621.967 39.8667 618.9 37.6333 614.9 36.1C618.633 34.5 619.167 33.0333 621.1 30.3C623.1 27.5 624.1 24.3333 624.1 20.8C624.1 15.4667 621.8 11.1 617.2 7.7C612.6 4.23333 605.467 2.5 595.8 2.5H558.4Z" stroke="black" stroke-width="5"/>
</svg>
